<?xml version="1.0" encoding="UTF-8" standalone="no"?>
<!-- Created with Inkscape (http://www.inkscape.org/) -->

<svg
   xmlns:dc="http://purl.org/dc/elements/1.1/"
   xmlns:cc="http://creativecommons.org/ns#"
   xmlns:rdf="http://www.w3.org/1999/02/22-rdf-syntax-ns#"
   xmlns:svg="http://www.w3.org/2000/svg"
   xmlns="http://www.w3.org/2000/svg"
   xmlns:sodipodi="http://sodipodi.sourceforge.net/DTD/sodipodi-0.dtd"
   xmlns:inkscape="http://www.inkscape.org/namespaces/inkscape"
   width="3.1040001in"
   height="2in"
   viewBox="0 0 78.841604 50.800001"
   version="1.1"
   id="svg13507"
   inkscape:version="0.92.3 (2405546, 2018-03-11)"
   sodipodi:docname="fig-results-5.svg"
   inkscape:export-filename="/home/evangeli/Desktop/ew282d-trombetta/figures/fig-results-5.png"
   inkscape:export-xdpi="300"
   inkscape:export-ydpi="300">
  <defs
     id="defs13501" />
  <sodipodi:namedview
     id="base"
     pagecolor="#ffffff"
     bordercolor="#666666"
     borderopacity="1.0"
     inkscape:pageopacity="0.0"
     inkscape:pageshadow="2"
     inkscape:zoom="4.543868"
     inkscape:cx="148.992"
     inkscape:cy="96"
     inkscape:document-units="in"
     inkscape:current-layer="layer1"
     showgrid="false"
     units="in"
     inkscape:window-width="1873"
     inkscape:window-height="1052"
     inkscape:window-x="47"
     inkscape:window-y="0"
     inkscape:window-maximized="1" />
  <metadata
     id="metadata13504">
    <rdf:RDF>
      <cc:Work
         rdf:about="">
        <dc:format>image/svg+xml</dc:format>
        <dc:type
           rdf:resource="http://purl.org/dc/dcmitype/StillImage" />
        <dc:title></dc:title>
      </cc:Work>
    </rdf:RDF>
  </metadata>
  <g
     inkscape:label="Layer 1"
     inkscape:groupmode="layer"
     id="layer1"
     transform="translate(0,-246.19998)">
    <g
       transform="matrix(0.35277777,0,0,-0.35277777,0.81028635,295.65503)"
       inkscape:label="accelerations-raw"
       id="g13536"
       style="">
      <g
         transform="matrix(0.125,0,0,-0.125,0,133)"
         id="g13538"
         style="">
        <g
           transform="matrix(6,0,0,6,-18.374998,-57.5)"
           id="g13540"
           style="">
          <path
             inkscape:connector-curvature="0"
             id="path13542"
             style="fill:#ffffff;fill-opacity:1;fill-rule:nonzero;stroke:none"
             d="M 0,0 H 298 V 192 H 0 Z" />
        </g>
        <g
           transform="matrix(6,0,0,6,-18.374998,-57.5)"
           id="g13544"
           style="">
          <path
             inkscape:connector-curvature="0"
             id="path13546"
             style="fill:#ffffff;fill-opacity:1;fill-rule:nonzero;stroke:none"
             d="M 39,68 H 270 V 14 H 39 Z" />
        </g>
        <g
           transform="matrix(6,0,0,6,-18.374998,-57.5)"
           id="g13548"
           style="">
          <path
             inkscape:connector-curvature="0"
             id="path13550"
             style="fill:none;stroke:#262626;stroke-width:0.66666698;stroke-linecap:butt;stroke-linejoin:round;stroke-miterlimit:10;stroke-dasharray:none;stroke-opacity:0.14901961"
             d="M 39,68 V 14" />
        </g>
        <g
           transform="matrix(6,0,0,6,-18.374998,-57.5)"
           id="g13552"
           style="">
          <path
             inkscape:connector-curvature="0"
             id="path13554"
             style="fill:none;stroke:#262626;stroke-width:0.66666698;stroke-linecap:butt;stroke-linejoin:round;stroke-miterlimit:10;stroke-dasharray:none;stroke-opacity:0.14901961"
             d="M 85.199997,68 V 14" />
        </g>
        <g
           transform="matrix(6,0,0,6,-18.374998,-57.5)"
           id="g13556"
           style="">
          <path
             inkscape:connector-curvature="0"
             id="path13558"
             style="fill:none;stroke:#262626;stroke-width:0.66666698;stroke-linecap:butt;stroke-linejoin:round;stroke-miterlimit:10;stroke-dasharray:none;stroke-opacity:0.14901961"
             d="M 131.39999,68 V 14" />
        </g>
        <g
           transform="matrix(6,0,0,6,-18.374998,-57.5)"
           id="g13560"
           style="">
          <path
             inkscape:connector-curvature="0"
             id="path13562"
             style="fill:none;stroke:#262626;stroke-width:0.66666698;stroke-linecap:butt;stroke-linejoin:round;stroke-miterlimit:10;stroke-dasharray:none;stroke-opacity:0.14901961"
             d="M 177.60001,68 V 14" />
        </g>
        <g
           transform="matrix(6,0,0,6,-18.374998,-57.5)"
           id="g13564"
           style="">
          <path
             inkscape:connector-curvature="0"
             id="path13566"
             style="fill:none;stroke:#262626;stroke-width:0.66666698;stroke-linecap:butt;stroke-linejoin:round;stroke-miterlimit:10;stroke-dasharray:none;stroke-opacity:0.14901961"
             d="M 223.8,68 V 14" />
        </g>
        <g
           transform="matrix(6,0,0,6,-18.374998,-57.5)"
           id="g13568"
           style="">
          <path
             inkscape:connector-curvature="0"
             id="path13570"
             style="fill:none;stroke:#262626;stroke-width:0.66666698;stroke-linecap:butt;stroke-linejoin:round;stroke-miterlimit:10;stroke-dasharray:none;stroke-opacity:0.14901961"
             d="M 270,68 V 14" />
        </g>
        <g
           transform="matrix(6,0,0,6,-18.374998,-57.5)"
           id="g13572"
           style="">
          <path
             inkscape:connector-curvature="0"
             id="path13574"
             style="fill:none;stroke:#262626;stroke-width:0.66666698;stroke-linecap:butt;stroke-linejoin:round;stroke-miterlimit:10;stroke-dasharray:none;stroke-opacity:0.14901961"
             d="M 270,57.200001 H 39" />
        </g>
        <g
           transform="matrix(6,0,0,6,-18.374998,-57.5)"
           id="g13576"
           style="">
          <path
             inkscape:connector-curvature="0"
             id="path13578"
             style="fill:none;stroke:#262626;stroke-width:0.66666698;stroke-linecap:butt;stroke-linejoin:round;stroke-miterlimit:10;stroke-dasharray:none;stroke-opacity:0.14901961"
             d="M 270,35.599998 H 39" />
        </g>
        <g
           transform="matrix(6,0,0,6,-18.374998,-57.5)"
           id="g13580"
           style="">
          <path
             inkscape:connector-curvature="0"
             id="path13582"
             style="fill:none;stroke:#262626;stroke-width:0.66666698;stroke-linecap:butt;stroke-linejoin:round;stroke-miterlimit:10;stroke-dasharray:none;stroke-opacity:0.14901961"
             d="M 270,14 H 39" />
        </g>
        <g
           transform="matrix(6,0,0,6,-18.374998,-57.5)"
           id="g13584"
           style="">
          <path
             inkscape:connector-curvature="0"
             id="path13586"
             style="fill:none;stroke:#262626;stroke-width:0.66666698;stroke-linecap:square;stroke-linejoin:round;stroke-miterlimit:10;stroke-dasharray:none;stroke-opacity:1"
             d="M 39,68 H 270" />
        </g>
        <g
           transform="matrix(6,0,0,6,-18.374998,-57.5)"
           id="g13588"
           style="">
          <path
             inkscape:connector-curvature="0"
             id="path13590"
             style="fill:none;stroke:#262626;stroke-width:0.66666698;stroke-linecap:square;stroke-linejoin:round;stroke-miterlimit:10;stroke-dasharray:none;stroke-opacity:1"
             d="M 39,68 V 65.690002" />
        </g>
        <g
           transform="matrix(6,0,0,6,-18.374998,-57.5)"
           id="g13592"
           style="">
          <path
             inkscape:connector-curvature="0"
             id="path13594"
             style="fill:none;stroke:#262626;stroke-width:0.66666698;stroke-linecap:square;stroke-linejoin:round;stroke-miterlimit:10;stroke-dasharray:none;stroke-opacity:1"
             d="M 85.199997,68 V 65.690002" />
        </g>
        <g
           transform="matrix(6,0,0,6,-18.374998,-57.5)"
           id="g13596"
           style="">
          <path
             inkscape:connector-curvature="0"
             id="path13598"
             style="fill:none;stroke:#262626;stroke-width:0.66666698;stroke-linecap:square;stroke-linejoin:round;stroke-miterlimit:10;stroke-dasharray:none;stroke-opacity:1"
             d="M 131.39999,68 V 65.690002" />
        </g>
        <g
           transform="matrix(6,0,0,6,-18.374998,-57.5)"
           id="g13600"
           style="">
          <path
             inkscape:connector-curvature="0"
             id="path13602"
             style="fill:none;stroke:#262626;stroke-width:0.66666698;stroke-linecap:square;stroke-linejoin:round;stroke-miterlimit:10;stroke-dasharray:none;stroke-opacity:1"
             d="M 177.60001,68 V 65.690002" />
        </g>
        <g
           transform="matrix(6,0,0,6,-18.374998,-57.5)"
           id="g13604"
           style="">
          <path
             inkscape:connector-curvature="0"
             id="path13606"
             style="fill:none;stroke:#262626;stroke-width:0.66666698;stroke-linecap:square;stroke-linejoin:round;stroke-miterlimit:10;stroke-dasharray:none;stroke-opacity:1"
             d="M 223.8,68 V 65.690002" />
        </g>
        <g
           transform="matrix(6,0,0,6,-18.374998,-57.5)"
           id="g13608"
           style="">
          <path
             inkscape:connector-curvature="0"
             id="path13610"
             style="fill:none;stroke:#262626;stroke-width:0.66666698;stroke-linecap:square;stroke-linejoin:round;stroke-miterlimit:10;stroke-dasharray:none;stroke-opacity:1"
             d="M 270,68 V 65.690002" />
        </g>
        <g
           id="g13612"
           style="">
          <g
             transform="matrix(6,0,0,6,215.625,363.29999)"
             id="g13614"
             style="">
            <text
               id="text13618"
               style="font-variant:normal;font-weight:normal;font-size:10.66699982px;font-family:Helvetica;-inkscape-font-specification:Helvetica;writing-mode:lr-tb;fill:#262626;fill-opacity:1;fill-rule:nonzero;stroke:none"
               transform="translate(-3.5,10)">
              <tspan
                 id="tspan13616"
                 y="0"
                 x="0"
                 style="">0</tspan>
            </text>
          </g>
        </g>
        <g
           id="g13620"
           style="">
          <g
             transform="matrix(6,0,0,6,492.82498,363.29999)"
             id="g13622"
             style="">
            <text
               id="text13626"
               style="font-variant:normal;font-weight:normal;font-size:10.66699982px;font-family:Helvetica;-inkscape-font-specification:Helvetica;writing-mode:lr-tb;fill:#262626;fill-opacity:1;fill-rule:nonzero;stroke:none"
               transform="translate(-3.5,10)">
              <tspan
                 id="tspan13624"
                 y="0"
                 x="0"
                 style="">2</tspan>
            </text>
          </g>
        </g>
        <g
           id="g13628"
           style="">
          <g
             transform="matrix(6,0,0,6,770.02497,363.29999)"
             id="g13630"
             style="">
            <text
               id="text13634"
               style="font-variant:normal;font-weight:normal;font-size:10.66699982px;font-family:Helvetica;-inkscape-font-specification:Helvetica;writing-mode:lr-tb;fill:#262626;fill-opacity:1;fill-rule:nonzero;stroke:none"
               transform="translate(-3.5,10)">
              <tspan
                 id="tspan13632"
                 y="0"
                 x="0"
                 style="">4</tspan>
            </text>
          </g>
        </g>
        <g
           id="g13636"
           style="">
          <g
             transform="matrix(6,0,0,6,1047.225,363.29999)"
             id="g13638"
             style="">
            <text
               id="text13642"
               style="font-variant:normal;font-weight:normal;font-size:10.66699982px;font-family:Helvetica;-inkscape-font-specification:Helvetica;writing-mode:lr-tb;fill:#262626;fill-opacity:1;fill-rule:nonzero;stroke:none"
               transform="translate(-3.5,10)">
              <tspan
                 id="tspan13640"
                 y="0"
                 x="0"
                 style="">6</tspan>
            </text>
          </g>
        </g>
        <g
           id="g13644"
           style="">
          <g
             transform="matrix(6,0,0,6,1324.425,363.29999)"
             id="g13646"
             style="">
            <text
               id="text13650"
               style="font-variant:normal;font-weight:normal;font-size:10.66699982px;font-family:Helvetica;-inkscape-font-specification:Helvetica;writing-mode:lr-tb;fill:#262626;fill-opacity:1;fill-rule:nonzero;stroke:none"
               transform="translate(-3.5,10)">
              <tspan
                 id="tspan13648"
                 y="0"
                 x="0"
                 style="">8</tspan>
            </text>
          </g>
        </g>
        <g
           id="g13652"
           style="">
          <g
             transform="matrix(6,0,0,6,1601.625,363.29999)"
             id="g13654"
             style="">
            <text
               id="text13658"
               style="font-variant:normal;font-weight:normal;font-size:10.66699982px;font-family:Helvetica;-inkscape-font-specification:Helvetica;writing-mode:lr-tb;fill:#262626;fill-opacity:1;fill-rule:nonzero;stroke:none"
               transform="translate(-7,10)">
              <tspan
                 id="tspan13656"
                 sodipodi:role="line"
                 y="0"
                 x="0 5.9308519">10</tspan>
            </text>
          </g>
        </g>
        <g
           id="g13660"
           style="">
          <g
             transform="matrix(6,0,0,6,908.62564,441.29999)"
             id="g13662"
             style="">
            <text
               id="text13666"
               style="font-variant:normal;font-weight:normal;font-size:10.66699982px;font-family:Helvetica;-inkscape-font-specification:Helvetica;writing-mode:lr-tb;fill:#262626;fill-opacity:1;fill-rule:nonzero;stroke:none"
               transform="translate(-18.5,10)">
              <tspan
                 id="tspan13664"
                 sodipodi:role="line"
                 y="0"
                 x="0 2.965426 5.3334999 14.219111 20.149963 23.115389 26.080814">time, s</tspan>
            </text>
          </g>
        </g>
        <g
           transform="matrix(6,0,0,6,-18.374998,-57.5)"
           id="g13668"
           style="">
          <path
             inkscape:connector-curvature="0"
             id="path13670"
             style="fill:none;stroke:#262626;stroke-width:0.66666698;stroke-linecap:square;stroke-linejoin:round;stroke-miterlimit:10;stroke-dasharray:none;stroke-opacity:1"
             d="M 39,68 V 14" />
        </g>
        <g
           transform="matrix(6,0,0,6,-18.374998,-57.5)"
           id="g13672"
           style="">
          <path
             inkscape:connector-curvature="0"
             id="path13674"
             style="fill:none;stroke:#262626;stroke-width:0.66666698;stroke-linecap:square;stroke-linejoin:round;stroke-miterlimit:10;stroke-dasharray:none;stroke-opacity:1"
             d="m 39,57.200001 h 2.310001" />
        </g>
        <g
           transform="matrix(6,0,0,6,-18.374998,-57.5)"
           id="g13676"
           style="">
          <path
             inkscape:connector-curvature="0"
             id="path13678"
             style="fill:none;stroke:#262626;stroke-width:0.66666698;stroke-linecap:square;stroke-linejoin:round;stroke-miterlimit:10;stroke-dasharray:none;stroke-opacity:1"
             d="m 39,35.599998 h 2.310001" />
        </g>
        <g
           transform="matrix(6,0,0,6,-18.374998,-57.5)"
           id="g13680"
           style="">
          <path
             inkscape:connector-curvature="0"
             id="path13682"
             style="fill:none;stroke:#262626;stroke-width:0.66666698;stroke-linecap:square;stroke-linejoin:round;stroke-miterlimit:10;stroke-dasharray:none;stroke-opacity:1"
             d="m 39,14 h 2.310001" />
        </g>
        <g
           id="g13684"
           style="">
          <g
             transform="matrix(6,0,0,6,202.82499,285.7)"
             id="g13686"
             style="">
            <text
               id="text13690"
               style="font-variant:normal;font-weight:normal;font-size:10.66699982px;font-family:Helvetica;-inkscape-font-specification:Helvetica;writing-mode:lr-tb;fill:#262626;fill-opacity:1;fill-rule:nonzero;stroke:none"
               transform="translate(-7,3.5)">
              <tspan
                 id="tspan13688"
                 y="0"
                 x="0"
                 style="">0</tspan>
            </text>
          </g>
        </g>
        <g
           id="g13692"
           style="">
          <g
             transform="matrix(6,0,0,6,202.82499,156.09999)"
             id="g13694"
             style="">
            <text
               id="text13698"
               style="font-variant:normal;font-weight:normal;font-size:10.66699982px;font-family:Helvetica;-inkscape-font-specification:Helvetica;writing-mode:lr-tb;fill:#262626;fill-opacity:1;fill-rule:nonzero;stroke:none"
               transform="translate(-14,3.5)">
              <tspan
                 id="tspan13696"
                 sodipodi:role="line"
                 y="0"
                 x="0 5.9308519">20</tspan>
            </text>
          </g>
        </g>
        <g
           id="g13700"
           style="">
          <g
             transform="matrix(6,0,0,6,202.82499,26.5)"
             id="g13702"
             style="">
            <text
               id="text13706"
               style="font-variant:normal;font-weight:normal;font-size:10.66699982px;font-family:Helvetica;-inkscape-font-specification:Helvetica;writing-mode:lr-tb;fill:#262626;fill-opacity:1;fill-rule:nonzero;stroke:none"
               transform="translate(-14,3.5)">
              <tspan
                 id="tspan13704"
                 sodipodi:role="line"
                 y="0"
                 x="0 5.9308519">40</tspan>
            </text>
          </g>
        </g>
        <g
           id="g13708"
           style="">
          <g
             transform="matrix(-2.6e-7,-6,6,-2.6e-7,65.625002,326.5)"
             id="g13710"
             style="">
            <text
               id="text13714"
               style="font-variant:normal;font-weight:normal;font-size:10.66699982px;font-family:Helvetica;-inkscape-font-specification:Helvetica;writing-mode:lr-tb;fill:#262626;fill-opacity:1;fill-rule:nonzero;stroke:none">
              <tspan
                 id="tspan13712"
                 y="0"
                 x="0"
                 style="">a</tspan>
            </text>
          </g>
        </g>
        <g
           id="g13716"
           style="">
          <g
             transform="matrix(-2.6e-7,-6,6,-2.6e-7,95.625002,284.5)"
             id="g13718"
             style="">
            <text
               id="text13722"
               style="font-variant:normal;font-weight:normal;font-size:8.53299999px;font-family:Helvetica;-inkscape-font-specification:Helvetica;writing-mode:lr-tb;fill:#262626;fill-opacity:1;fill-rule:nonzero;stroke:none">
              <tspan
                 id="tspan13720"
                 y="0"
                 x="0"
                 style="">Y</tspan>
            </text>
          </g>
        </g>
        <g
           id="g13724"
           style="">
          <g
             transform="matrix(-2.6e-7,-6,6,-2.6e-7,65.625002,248.5)"
             id="g13726"
             style="">
            <text
               id="text13730"
               style="font-variant:normal;font-weight:normal;font-size:10.66699982px;font-family:Helvetica;-inkscape-font-specification:Helvetica;writing-mode:lr-tb;fill:#262626;fill-opacity:1;fill-rule:nonzero;stroke:none">
              <tspan
                 id="tspan13728"
                 sodipodi:role="line"
                 y="0"
                 x="0 2.965426 5.9308519 14.816463 17.781889">, m/s</tspan>
            </text>
          </g>
        </g>
        <g
           id="g13732"
           style="">
          <g
             transform="matrix(-2.6e-7,-6,6,-2.6e-7,35.625002,86.5)"
             id="g13734"
             style="">
            <text
               id="text13738"
               style="font-variant:normal;font-weight:normal;font-size:8.53299999px;font-family:Helvetica;-inkscape-font-specification:Helvetica;writing-mode:lr-tb;fill:#262626;fill-opacity:1;fill-rule:nonzero;stroke:none">
              <tspan
                 id="tspan13736"
                 y="0"
                 x="0"
                 style="">2</tspan>
            </text>
          </g>
        </g>
        <g
           transform="matrix(6,0,0,6,-18.374998,-57.5)"
           id="g13740"
           style="">
          <path
             inkscape:connector-curvature="0"
             id="path13742"
             style="fill:none;stroke:#0000ff;stroke-width:0.66666698;stroke-linecap:butt;stroke-linejoin:round;stroke-miterlimit:10;stroke-dasharray:none;stroke-opacity:1"
             d="m 39.230999,36.004417 0.231003,0.81527 0.230999,1.433475 0.230999,2.229344 0.230999,2.691219 0.231003,2.91803 0.230999,2.695099 0.230999,2.173084 0.230999,1.917816 0.231002,1.433636 0.230999,0.964973 0.230999,0.827881 0.230999,0.547879 0.231003,0.503742 0.230999,0.254783 0.230999,-0.19432 0.230999,-0.144688 0.231003,-0.315083 0.230999,-0.475616 0.230999,-0.876217 0.231003,-0.597996 0.230999,-0.526054 0.230999,-0.687557 0.230999,-2.734219 0.231003,-5.16645 0.230999,-5.208165 0.230999,-4.614532 0.230998,-1.763752 0.231003,2.126526 0.230999,1.851375 0.230999,-0.606723 0.230999,-1.383358 0.231003,-0.798783 0.230999,-0.471897 0.230999,0.07857 0.231003,0.743976 0.230999,1.37188 0.230999,2.345256 0.230999,2.750386 0.231003,2.637867 0.230999,2.28722 0.230999,2.151748 0.230999,1.638947 0.231002,0.791988 0.230999,0.07792 0.230999,0.07275 0.230999,0.34887 0.231003,0.668804 0.230999,1.10384 0.230999,1.437839 0.230999,1.463703 0.231003,1.07927 0.230999,0.267875 0.230999,-0.02344 0.231003,-0.05286 0.230999,-0.238617 0.230999,-0.906933 0.230999,-1.708626 0.230999,-2.183105 0.231003,-2.06752 0.230999,-0.502129 0.230999,0.249127 0.231002,-1.538556 0.230999,-3.364223 0.230999,-5.158211 0.231003,-4.791229 0.230999,-5.246475 0.230999,-4.693911 0.230999,1.175944 0.230999,5.698974 0.231003,4.702801 0.230999,1.857677 0.230999,0.364712 0.231003,1.64e-4 0.230999,-0.868297 0.230999,-0.914212 0.230999,0.32317 0.230999,1.989597 0.231003,2.731472 0.230999,2.611031 0.230999,2.390682 0.231002,2.261677 0.230999,2.02549 0.230999,1.506542 0.231003,0.946865 0.230999,0.682385 0.230999,0.748016 0.230999,0.937492 0.230999,1.001023 0.231003,0.417736 0.230999,-0.112355 0.230999,-0.316375 0.231003,-0.919384 0.230999,-1.369294 0.230999,-1.116611 0.230999,-0.447807 0.231002,0.576816 0.230999,0.384598 0.230999,-1.893566 0.230999,-5.265232 0.231003,-5.557678 0.230999,-4.847004 0.230999,-4.412453 0.230999,-2.668583 0.230999,0.821897 0.231003,2.149481 0.231003,1.30867 0.230999,0.02393 0.230999,-0.587646 0.231003,0.47351 0.230995,1.277306 0.231003,1.375599 0.230995,1.798836 0.231003,2.535209 0.231002,3.190758 0.230996,3.232143 0.231002,2.953278 0.230996,1.951767 0.231002,0.774044 0.231003,-0.401409 0.231003,-0.293903 0.230995,0.09796 0.231003,0.230049 0.230995,0.674621 0.231003,0.681901 0.231003,0.693538 0.230995,0.973377 0.231003,0.893029 0.230995,0.425987 0.231003,-0.312981 0.231003,-1.095112 0.231002,-1.265827 0.230996,-1.351188 0.231002,-1.252087 0.230996,-0.561459 0.231002,0.419358 0.231003,-0.986634 0.230995,-2.646438 0.231003,-5.028713 0.230995,-5.339757 0.231003,-5.261348 0.231003,-3.913073 0.230995,0.04866 0.231003,4.483097 0.231003,2.84108 0.230995,-0.175403 0.231003,-1.458207 0.231003,-0.445224 0.230995,0.938457 0.231003,1.815807 0.230995,2.504498 0.231003,2.469093 0.231002,2.507565 0.230995,2.651451 0.231003,2.359158 0.230995,1.813385 0.231003,1.298805 0.231003,0.772915 0.231003,0.735248 0.230995,0.861344 0.231003,1.158485 0.230995,1.159451 0.231003,0.53527 0.231003,0.223904 0.230995,-0.123673 0.231003,-0.36132 0.230995,-0.772106 0.231003,-1.370102 0.231002,-1.871094 0.231003,-1.135204 0.230995,0.04203 0.231003,0.163761 0.230995,-2.633503 0.231003,-5.759273 0.231003,-5.516293 0.230995,-4.946751 0.231003,-3.960924 0.230995,-1.273586 0.231003,1.968578 0.231003,2.739233 0.230995,1.866085 0.231003,0.979843 0.231003,1.337933 0.230995,1.472916 0.231003,1.0783 0.231002,1.369614 0.230996,1.613891 0.231002,1.751465 0.230996,1.946755 0.231002,1.898098 0.231003,1.724788 0.230995,1.155087 0.231003,0.663631 0.231003,0.635338 0.230995,0.847443 0.231003,1.125019 0.231003,1.112408 0.230995,0.88042 0.231003,0.356308 0.230995,0.152935 0.231003,0.415962 0.231003,0.359055 0.230995,-0.247669 0.231003,-1.398556 0.230995,-1.812248 0.231003,-1.836662 0.231002,-0.991326 0.230996,0.69661 0.231002,1.228645 0.230996,-2.684589 0.231002,-4.85719 0.231003,-4.172702 0.231003,-4.410027 0.231003,-5.320518 0.230995,-3.720532 0.231003,0.139031 0.230995,3.176532 0.231003,2.628655 0.231003,0.408848 0.230995,-0.135155 0.231002,-0.235058 0.230996,-0.430187 0.231002,0.574715 0.231003,2.380336 0.230995,3.232632 0.231003,2.898148 0.230995,2.818447 0.231003,2.695903 0.231003,2.1414 0.230995,1.646869 0.231003,1.055829 0.230995,0.62968 0.231003,0.550141 0.231003,0.689659 0.230995,1.091068 0.231003,1.157352 0.230995,0.482079 0.23101,0.41774 0.230996,-0.193348 0.231002,-0.446838 0.231003,-0.964974 0.230995,-1.640724 0.231003,-1.388046 0.230995,-0.918091 0.231003,0.236515 0.231003,1.085411 0.230995,-0.129978 0.231003,-3.713742 0.230995,-5.75119 0.231003,-4.725757 0.231003,-5.511441 0.230995,-5.575302 0.231003,-1.745805 0.230995,2.019826 0.231003,2.783528 0.231003,2.194587 0.230995,1.160584 0.231003,0.975155 0.230995,0.955757 0.231003,1.341164 0.231002,1.89373 0.230996,2.240337 0.23101,2.298374 0.230995,2.502556 0.230999,2.062508 0.231,1.205364 0.231,0.452984 0.231,0.104435 0.231,0.252193 0.231,0.669613 0.231,1.153309 0.231,1.60112 0.231,1.577351 0.231,1.202297 0.231,0.660072 0.231,0.349678 0.231,-0.131431 0.231,-0.751416 0.231,-1.513012 0.231,-1.955162 0.231,-1.754375 0.231,-0.373928 0.231,0.687717 0.231,-1.2807 0.231,-4.03545 0.23099,-4.558922 0.23101,-4.711693 0.231,-4.483581 0.231,-4.238987 0.23101,-1.680174 0.23099,2.489462 0.231,4.109493 0.231,2.678772 0.231,1.092846 0.231,0.450718 0.231,0.157463 0.231,-0.133538 0.231,0.163445 0.231,0.970467 0.231,1.688415 0.231,2.506924 0.231,2.82378 0.231,2.507892 0.231,1.804814 0.231,1.279571 0.231,1.158482 0.231,1.377861 0.231,1.436222 0.231,1.165916 0.231,0.378457 0.231,0.02441 0.231,-0.289055 0.231,-0.961899 0.231,-1.118229 0.231,-0.960445 0.231,-0.796517 0.23101,-0.1594 0.23099,0.436817 0.231,-0.987606 0.231,-4.556172 0.231,-6.519417 0.231,-5.803245 0.231,-4.386265 0.231,-1.484234 0.231,1.595623 0.231,2.242115 0.231,1.550194 0.231,0.200302 0.231,-0.365524 0.231,0.348549 0.231,0.847282 0.231,1.066658 0.231,1.745159 0.231,2.039711 0.23099,2.511288 0.23101,2.438049 0.231,2.052811 0.231,1.566036 0.23101,0.977257 0.23099,0.533493 0.231,0.416607 0.231,0.625637 0.231,0.999569 0.231,1.347954 0.231,1.2225 0.231,0.615131 0.231,0.07097 0.231,0.0024 0.231,0.250904 0.231,0.08228 0.231,-0.85326 0.231,-1.63345 0.231,-1.36137 0.231,-1.09576 0.231,-0.363419 0.231,-0.30991 0.231,-2.615398 0.231,-3.875889 0.231,-4.585754 0.231,-5.036965 0.231,-3.953163 0.23099,-1.736915 0.23101,1.848304 0.231,4.142311 0.231,1.945462 0.23101,-0.50132 0.23099,-1.007813 0.231,-0.851642 0.231,-0.501805 0.231,0.287758 0.231,1.534191 0.231,2.57272 0.231,3.080502 0.231,2.686531 0.231,2.400222 0.231,1.985554 0.231,1.676617 0.231,1.443817 0.231,1.357979 0.231,1.28458 0.231,1.466614 0.231,1.389499 0.231,0.985665 0.23099,0.217922 0.23101,-0.399307 0.231,-0.628388 0.231,-1.371555 0.23101,-2.090313 0.231,-1.97311 0.23099,-1.295735 0.231,0.19529 0.231,1.030445 0.231,-1.087189 0.23101,-4.799312 0.23099,-5.805996 0.231,-5.232571 0.231,-3.779377 0.231,-1.063585 0.23101,0.252356 0.23098,0.04139 0.23102,0.262703 0.23099,0.694832 0.231,1.597725 0.23101,2.121673 0.231,1.919274 0.23099,2.007217 0.231,2.461334 0.231,2.802281 0.231,2.464725 0.23099,1.945462 0.23102,1.368 0.23099,0.716655 0.231,0.11559 0.231,0.120925 0.23101,0.48079 0.23098,1.216842 0.23101,1.39645 0.231,1.775879 0.231,1.181114 0.23099,0.246052 0.23102,-0.2509 0.23098,-0.422913 0.23101,-1.053886 0.231,-1.308506 0.231,-1.627956 0.23101,-1.836503 0.23098,-1.072151 0.23102,0.480301 0.23099,1.42442 0.231,-1.28571 0.231,-4.197117 0.23101,-3.858432 0.23098,-4.026238 0.23101,-4.864464 0.231,-6.122368 0.231,-3.667669 0.23099,3.694504 0.23102,6.663458 0.23099,3.532032 0.231,0.91243 0.231,-0.63065 0.231,-1.211021 0.23099,-0.902409 0.23101,0.27887 0.231,2.069622 0.231,3.445701 0.23099,2.863873 0.23102,2.029365 0.23098,1.64655 0.23101,1.656082 0.231,1.604675 0.231,1.32629 0.23101,1.197445 0.23098,1.144901 0.23102,1.467747 0.23099,0.878643 0.231,0.544808 0.231,-0.79361 0.23101,-0.521202 0.23098,-1.09576 0.23101,-1.182408 0.231,-1.10012 0.231,-0.229401 0.23099,0.740742 0.23102,0.164413 0.23099,-2.865978 0.231,-5.574005 0.231,-5.629135 0.231,-5.980431 0.23099,-6.336573 0.231,-2.029205 0.23101,3.770163 0.231,3.742839 0.23099,1.556664 0.23102,-0.125618 0.231,-0.273373 0.23099,0.943795 0.231,1.835369 0.231,1.911674 0.231,1.960499 0.23099,2.381794 0.23102,2.932579 0.23099,3.074684 0.231,2.348328 0.231,1.498787 0.23101,0.348385 0.23098,-0.466076 0.23101,-0.363419 0.231,0.05658 0.231,0.850353 0.23099,1.058575 0.23102,0.858596 0.23099,0.579243 0.231,0.568733 0.231,0.292771 0.231,-0.357437 0.23099,-1.468392 0.231,-2.370479 0.23101,-1.668209 0.231,-1.287812 0.231,-0.471412 0.23101,-0.539956 0.231,-1.756641 0.23099,-2.578861 0.231,-3.466397 0.231,-3.818176 0.231,-5.368046 0.23099,-4.652198 0.23102,0.839843 0.23099,3.538659 0.231,1.571048 0.231,0.264645 0.23101,-0.173306 0.23098,0.146794 0.23101,1.395805 0.231,2.906391 0.231,3.642124 0.23099,3.547711 0.23102,3.257526 0.23099,2.214634 0.231,1.459824 0.231,0.765316 0.231,0.443283 0.23099,0.646816 0.231,0.837742 0.23102,1.119846 0.23099,1.04451 0.231,0.264321 0.23101,-0.02958 0.231,-0.188015 0.23099,-0.587811 0.231,-0.722477 0.231,-0.509888 0.231,-0.819957 0.23099,-0.71019 0.23102,-0.573261 0.23099,-1.029637 0.231,-3.527019 0.231,-6.308769 0.23101,-5.871144 0.23098,-4.754696 0.23101,-3.327202 0.231,-0.483053 0.231,2.46505 0.23099,3.157297 0.23102,1.52174 0.23098,0.417416 0.23101,0.968528 0.231,1.407929 0.231,1.36137 0.23101,2.066067 0.23098,2.312439 0.23102,2.06089 0.23099,1.78606 0.231,1.56604 0.231,1.197121 0.23101,0.956402 0.23098,0.969658 0.23101,1.187259 0.231,1.355877 0.231,1.402916 0.23099,1.07943 0.23102,0.404968 0.23099,0.112679 0.231,-0.200623 0.231,-0.37587 0.231,-0.54319 0.23099,-0.673004 0.23101,-1.489086 0.231,-1.648003 0.231,-1.791881 0.23099,-0.774853 0.23102,1.011852 0.23098,-0.01681 0.23101,-3.203209 0.231,-3.131752 0.231,-3.026508 0.23101,-4.325798 0.23098,-6.035557 0.23102,-6.518772 0.23099,-0.800074 0.231,5.235319 0.231,3.932961 0.23101,1.789779 0.23098,1.008297 0.23101,0.360672 0.231,0.174759 0.231,1.072155 0.23099,2.226757 0.23102,2.633828 0.23099,2.426895 0.231,2.112301 0.231,1.878532 0.231,1.906986 0.23099,1.561348 0.231,1.654629 0.23101,1.248531 0.231,0.806378 0.23099,0.759498 0.23102,0.565663 0.231,0.339168 0.23099,-0.09813 0.231,-0.625637 0.231,-0.76564 0.231,-1.383198 0.23099,-1.430561 0.23102,-1.270516 0.23099,-0.844047 0.231,0.352913 0.231,0.5988 0.23101,-2.231281 0.23098,-5.547012 0.23101,-5.579502 0.231,-5.51791 0.231,-4.99444 0.23099,-1.669178 0.23102,3.024566 0.23099,3.629355 0.231,2.67699 0.231,1.290562 0.231,0.546421 0.23099,0.846958 0.231,0.866036 0.23101,1.064876 0.231,1.614376 0.231,2.300961 0.23101,2.577568 0.231,2.260544 0.23099,1.534191 0.231,0.382335 0.231,-0.245082 0.231,-0.08294 0.23099,0.31638 0.23102,0.841781 0.23099,1.54599 0.231,1.945141 0.231,1.537262 0.23101,0.563236 0.23098,0.353234 0.23101,-0.0797 0.231,-0.587806 0.231,-1.441071 0.23099,-2.111008 0.23102,-1.649131 0.23099,-0.481759 0.231,0.381203 0.231,-0.388481 0.231,-3.428886 0.23099,-4.173836 0.231,-5.148026 0.23102,-6.556598 0.23099,-6.934246 0.231,-3.317179 0.23101,4.202288 0.231,6.805564 0.23099,4.267762 0.231,1.677421 0.231,-0.01018 0.231,-0.623535 0.23099,-1.206982 0.23102,-0.728458 0.23099,0.846309 0.231,2.528748 0.231,3.216461 0.23101,2.896046 0.23098,2.229507 0.23101,1.976502 0.231,2.028396 0.231,1.93657 0.23099,1.353775 0.23102,0.940399 0.23098,0.704204 0.23101,0.577626 0.231,0.407878 0.231,-0.08229 0.23101,-0.705986 0.23098,-0.841298 0.23102,-1.229778 0.23099,-1.444305 0.231,-1.206497 0.231,-0.169583 0.23101,1.039982 0.23098,0.73476 0.23101,-2.756042 0.231,-6.622723 0.231,-5.809551 0.23099,-4.63102 0.23102,-4.629728 0.23099,-2.754106 0.231,0.993585 0.231,3.17605 0.23101,2.360131 0.23098,1.194046 0.23101,0.820446 0.231,1.610172 0.231,1.739502 0.23099,1.495876 0.23102,1.682919 0.23098,2.020313 0.23101,2.056522 0.231,1.658188 0.231,1.596108 0.23101,1.193725 0.23098,0.452011 0.23102,0.293259 0.23099,0.754162 0.231,1.154926 0.231,1.459015 0.23101,1.108368 0.23098,0.519749 0.23101,0.03831 0.231,0.221641 0.231,0.340786 0.23099,-0.07824 0.23102,-0.70744 0.23099,-1.328716 0.231,-1.597076 0.231,-1.179661 0.231,-0.10088 0.23099,0.435684 0.231,-1.861072 0.23101,-4.101738 0.231,-4.346169 0.23099,-4.19178 0.23102,-4.43848 0.231,-4.673376 0.23099,-2.184078 0.231,3.183643 0.231,3.776953 0.231,0.965133 0.23099,-0.09748 0.23102,-0.03039 0.23099,0.436653 0.231,1.183865 0.231,2.011585 0.23101,2.527935 0.23098,2.844635 0.23101,2.767525 0.231,2.392299 0.231,2.047959 0.23099,1.589153 0.23102,1.078785 0.23099,0.715523 0.231,0.540443 0.231,0.556771 0.231,1.001991 0.23099,0.854877 0.231,0.301827 0.23101,0.03233 0.231,-0.345154 0.231,-0.847763 0.23101,-1.204071 0.231,-1.521904 0.23099,-1.194858 0.231,-0.969498 0.231,0.360352 0.231,0.218242 0.23099,-3.846302 0.23102,-5.72969 0.23099,-4.955319 0.231,-4.555202 0.231,-3.6785 0.23101,-0.813331 0.23098,1.290563 0.23101,2.086758 0.231,1.551487 0.231,1.117741 0.23099,1.545994 0.23102,1.707977 0.23099,1.960983 0.231,2.283661 0.231,2.528263 0.231,2.798237 0.23099,2.452602 0.231,1.777333 0.23102,0.828041 0.23099,0.02457 0.231,-0.200787 0.23101,-0.168293 0.231,0.377972 0.23099,1.095596 0.231,1.716385 0.231,1.453194 0.231,0.590237 0.23099,0.0367 0.23102,-0.11478 0.23099,-0.482247 0.231,-1.184349 0.231,-1.525619 0.23101,-1.532414 0.23098,-1.106102 0.23101,0.05513 0.231,1.600472 0.231,0.25721 0.23099,-3.528477 0.23102,-4.638619 0.23098,-4.74823 0.23101,-5.710609 0.231,-7.172541 0.231,-4.689869 0.23101,2.650965 0.231,7.222332 0.23099,4.741116 0.231,1.360241 0.231,0.314434 0.231,0.08277 0.23099,-0.499058 0.231,-0.338524 0.23101,0.688691 0.23102,2.109386 0.23097,2.611843 0.231,2.300961 0.23102,1.86948 0.231,1.744838 0.23097,1.686154 0.23102,1.470653 0.231,1.453846 0.23101,1.309475 0.23099,1.107235 0.231,0.788597 0.231,0.214043 0.231,-0.06143 0.23099,-0.128361 0.231,-0.715847 0.23101,-1.26017 0.231,-1.408577 0.23102,-1.239475 0.23097,-0.635341 0.231,0.258338 0.23102,-0.671066 0.231,-4.086212 0.23098,-5.328602 0.23101,-5.264259 0.23101,-6.27207 0.231,-4.629084 0.23099,0.106213 0.231,3.35404 0.231,3.432768 0.23101,2.384056 0.23098,1.596916 0.23101,1.611466 0.231,1.161068 0.231,1.007812 0.23099,1.370102 0.231,2.095162 0.231,2.557361 0.23102,2.431908 0.23098,1.62828 0.231,0.736378 0.23102,0.256077 0.231,0.131752 0.231,0.164738 0.23099,0.564693 0.231,1.107395 0.231,1.232201 0.23101,1.051464 0.23099,0.759495 0.231,0.472866 0.231,0.06289 0.231,-0.432938 0.23099,-1.049518 0.231,-1.358303 0.23101,-1.691002 0.23101,-0.860535 0.23098,0.492428 0.231,0.817532 0.23102,-1.473889 0.231,-3.718105 0.23097,-4.976822 0.23102,-6.507454 0.231,-7.658823 0.23101,-6.912905 0.23098,-0.370859 0.23101,7.539032 0.231,5.701235 0.231,1.938026 0.23101,0.168778 0.23098,-0.04785 0.23101,-0.03977 0.231,0.558224 0.23102,1.631832 0.23097,2.39489 0.231,2.919647 0.23102,2.834778 0.231,2.32246 0.23098,1.847656 0.23101,1.2495 0.23101,1.050492 0.231,0.900467 0.23099,0.813007 0.231,0.650375 0.231,0.693535 0.231,0.329151 0.23099,0.119629 0.23101,0.09538 0.231,-0.106377 0.231,-0.577137 0.23099,-0.908874 0.231,-1.470173 0.231,-1.581719 0.23102,-0.633235 0.231,-0.17088 0.23098,-1.36121 0.23102,-4.656887 0.231,-5.526317 0.231,-4.522381 0.23099,-4.431854 0.231,-3.323 0.231,-0.278223 0.23101,2.775446 0.23098,2.947454 0.23101,1.125019 0.231,0.383949 0.231,1.564583 0.23099,1.878697 0.231,1.873035 0.23101,1.923153 0.23101,2.21706 0.23098,2.637867 0.231,2.37759 0.23102,1.752438 0.231,0.861343 0.23097,0.207413 0.23102,0.02522 0.231,0.07146 0.23101,0.384113 0.231,0.617558 0.23099,0.91954 0.231,0.895134 0.231,0.564205 0.231,0.721024 0.23099,0.822868 0.231,0.169911 0.23101,-0.323979 0.23102,-1.063259 0.23097,-1.412136 0.231,-0.830143 0.23102,-0.170071 0.231,0.543515 0.23097,-1.029477 0.23102,-4.344066 0.23099,-5.576432 0.23102,-7.577831 0.23099,-8.218504 0.23098,-6.002741 0.23102,1.266314 0.23102,7.187252 0.23096,5.681997 0.23101,2.51759 0.23102,0.841297 0.23099,0.625317 0.23102,-0.536236 0.23099,-1.307537 0.23098,-1.152504 0.23102,0.05981 0.23099,1.872071 0.23099,3.035724 0.23101,3.075489 0.23099,2.770272 0.23102,2.551055 0.23099,2.066388 0.23098,1.696983 0.23102,1.1213 0.23102,1.055988 0.23096,0.966106 0.23102,0.756909 0.23101,0.662498 0.23099,0.0058 0.23099,-0.406586 0.23102,-0.645848 0.23098,-0.833213 0.23102,-0.694023 0.23099,-1.271649 0.23099,-1.628925 0.23102,-1.105133 0.23098,-0.697418 0.23102,-1.580101 0.23099,-3.608014 0.23099,-4.728183 0.23101,-4.888874 0.23102,-4.195176 0.23096,-1.489896 0.23102,1.132616 0.23102,1.935604 0.23098,1.458206 0.23099,0.647625 0.23102,-0.027 0.23099,0.334163 0.23101,0.714714 0.23099,0.982434 0.23099,1.440261 0.23102,1.911026 0.23099,2.520501 0.23098,2.849163 0.23102,2.537155 0.23099,1.762943 0.23102,1.04855 0.23098,0.356468 0.23099,0.08277 L 270,53.54171" />
        </g>
        <g
           transform="matrix(6,0,0,6,-18.374998,-57.5)"
           id="g13744"
           style="">
          <path
             inkscape:connector-curvature="0"
             id="path13746"
             style="fill:#ffffff;fill-opacity:1;fill-rule:nonzero;stroke:none"
             d="M 39,159 H 270 V 105 H 39 Z" />
        </g>
        <g
           transform="matrix(6,0,0,6,-18.374998,-57.5)"
           id="g13748"
           style="">
          <path
             inkscape:connector-curvature="0"
             id="path13750"
             style="fill:none;stroke:#262626;stroke-width:0.66666698;stroke-linecap:butt;stroke-linejoin:round;stroke-miterlimit:10;stroke-dasharray:none;stroke-opacity:0.14901961"
             d="M 39,159 V 105" />
        </g>
        <g
           transform="matrix(6,0,0,6,-18.374998,-57.5)"
           id="g13752"
           style="">
          <path
             inkscape:connector-curvature="0"
             id="path13754"
             style="fill:none;stroke:#262626;stroke-width:0.66666698;stroke-linecap:butt;stroke-linejoin:round;stroke-miterlimit:10;stroke-dasharray:none;stroke-opacity:0.14901961"
             d="M 85.199997,159 V 105" />
        </g>
        <g
           transform="matrix(6,0,0,6,-18.374998,-57.5)"
           id="g13756"
           style="">
          <path
             inkscape:connector-curvature="0"
             id="path13758"
             style="fill:none;stroke:#262626;stroke-width:0.66666698;stroke-linecap:butt;stroke-linejoin:round;stroke-miterlimit:10;stroke-dasharray:none;stroke-opacity:0.14901961"
             d="M 131.39999,159 V 105" />
        </g>
        <g
           transform="matrix(6,0,0,6,-18.374998,-57.5)"
           id="g13760"
           style="">
          <path
             inkscape:connector-curvature="0"
             id="path13762"
             style="fill:none;stroke:#262626;stroke-width:0.66666698;stroke-linecap:butt;stroke-linejoin:round;stroke-miterlimit:10;stroke-dasharray:none;stroke-opacity:0.14901961"
             d="M 177.60001,159 V 105" />
        </g>
        <g
           transform="matrix(6,0,0,6,-18.374998,-57.5)"
           id="g13764"
           style="">
          <path
             inkscape:connector-curvature="0"
             id="path13766"
             style="fill:none;stroke:#262626;stroke-width:0.66666698;stroke-linecap:butt;stroke-linejoin:round;stroke-miterlimit:10;stroke-dasharray:none;stroke-opacity:0.14901961"
             d="M 223.8,159 V 105" />
        </g>
        <g
           transform="matrix(6,0,0,6,-18.374998,-57.5)"
           id="g13768"
           style="">
          <path
             inkscape:connector-curvature="0"
             id="path13770"
             style="fill:none;stroke:#262626;stroke-width:0.66666698;stroke-linecap:butt;stroke-linejoin:round;stroke-miterlimit:10;stroke-dasharray:none;stroke-opacity:0.14901961"
             d="M 270,159 V 105" />
        </g>
        <g
           transform="matrix(6,0,0,6,-18.374998,-57.5)"
           id="g13772"
           style="">
          <path
             inkscape:connector-curvature="0"
             id="path13774"
             style="fill:none;stroke:#262626;stroke-width:0.66666698;stroke-linecap:butt;stroke-linejoin:round;stroke-miterlimit:10;stroke-dasharray:none;stroke-opacity:0.14901961"
             d="M 270,148.2 H 39" />
        </g>
        <g
           transform="matrix(6,0,0,6,-18.374998,-57.5)"
           id="g13776"
           style="">
          <path
             inkscape:connector-curvature="0"
             id="path13778"
             style="fill:none;stroke:#262626;stroke-width:0.66666698;stroke-linecap:butt;stroke-linejoin:round;stroke-miterlimit:10;stroke-dasharray:none;stroke-opacity:0.14901961"
             d="M 270,126.6 H 39" />
        </g>
        <g
           transform="matrix(6,0,0,6,-18.374998,-57.5)"
           id="g13780"
           style="">
          <path
             inkscape:connector-curvature="0"
             id="path13782"
             style="fill:none;stroke:#262626;stroke-width:0.66666698;stroke-linecap:butt;stroke-linejoin:round;stroke-miterlimit:10;stroke-dasharray:none;stroke-opacity:0.14901961"
             d="M 270,105 H 39" />
        </g>
        <g
           transform="matrix(6,0,0,6,-18.374998,-57.5)"
           id="g13784"
           style="">
          <path
             inkscape:connector-curvature="0"
             id="path13786"
             style="fill:none;stroke:#262626;stroke-width:0.66666698;stroke-linecap:square;stroke-linejoin:round;stroke-miterlimit:10;stroke-dasharray:none;stroke-opacity:1"
             d="M 39,159 H 270" />
        </g>
        <g
           transform="matrix(6,0,0,6,-18.374998,-57.5)"
           id="g13788"
           style="">
          <path
             inkscape:connector-curvature="0"
             id="path13790"
             style="fill:none;stroke:#262626;stroke-width:0.66666698;stroke-linecap:square;stroke-linejoin:round;stroke-miterlimit:10;stroke-dasharray:none;stroke-opacity:1"
             d="m 39,159 v -2.31" />
        </g>
        <g
           transform="matrix(6,0,0,6,-18.374998,-57.5)"
           id="g13792"
           style="">
          <path
             inkscape:connector-curvature="0"
             id="path13794"
             style="fill:none;stroke:#262626;stroke-width:0.66666698;stroke-linecap:square;stroke-linejoin:round;stroke-miterlimit:10;stroke-dasharray:none;stroke-opacity:1"
             d="m 85.199997,159 v -2.31" />
        </g>
        <g
           transform="matrix(6,0,0,6,-18.374998,-57.5)"
           id="g13796"
           style="">
          <path
             inkscape:connector-curvature="0"
             id="path13798"
             style="fill:none;stroke:#262626;stroke-width:0.66666698;stroke-linecap:square;stroke-linejoin:round;stroke-miterlimit:10;stroke-dasharray:none;stroke-opacity:1"
             d="m 131.39999,159 v -2.31" />
        </g>
        <g
           transform="matrix(6,0,0,6,-18.374998,-57.5)"
           id="g13800"
           style="">
          <path
             inkscape:connector-curvature="0"
             id="path13802"
             style="fill:none;stroke:#262626;stroke-width:0.66666698;stroke-linecap:square;stroke-linejoin:round;stroke-miterlimit:10;stroke-dasharray:none;stroke-opacity:1"
             d="m 177.60001,159 v -2.31" />
        </g>
        <g
           transform="matrix(6,0,0,6,-18.374998,-57.5)"
           id="g13804"
           style="">
          <path
             inkscape:connector-curvature="0"
             id="path13806"
             style="fill:none;stroke:#262626;stroke-width:0.66666698;stroke-linecap:square;stroke-linejoin:round;stroke-miterlimit:10;stroke-dasharray:none;stroke-opacity:1"
             d="m 223.8,159 v -2.31" />
        </g>
        <g
           transform="matrix(6,0,0,6,-18.374998,-57.5)"
           id="g13808"
           style="">
          <path
             inkscape:connector-curvature="0"
             id="path13810"
             style="fill:none;stroke:#262626;stroke-width:0.66666698;stroke-linecap:square;stroke-linejoin:round;stroke-miterlimit:10;stroke-dasharray:none;stroke-opacity:1"
             d="m 270,159 v -2.31" />
        </g>
        <g
           id="g13812"
           style="">
          <g
             transform="matrix(6,0,0,6,215.625,909.29999)"
             id="g13814"
             style="">
            <text
               id="text13818"
               style="font-variant:normal;font-weight:normal;font-size:10.66699982px;font-family:Helvetica;-inkscape-font-specification:Helvetica;writing-mode:lr-tb;fill:#262626;fill-opacity:1;fill-rule:nonzero;stroke:none"
               transform="translate(-3.5,10)">
              <tspan
                 id="tspan13816"
                 y="0"
                 x="0"
                 style="">0</tspan>
            </text>
          </g>
        </g>
        <g
           id="g13820"
           style="">
          <g
             transform="matrix(6,0,0,6,492.82498,909.29999)"
             id="g13822"
             style="">
            <text
               id="text13826"
               style="font-variant:normal;font-weight:normal;font-size:10.66699982px;font-family:Helvetica;-inkscape-font-specification:Helvetica;writing-mode:lr-tb;fill:#262626;fill-opacity:1;fill-rule:nonzero;stroke:none"
               transform="translate(-3.5,10)">
              <tspan
                 id="tspan13824"
                 y="0"
                 x="0"
                 style="">2</tspan>
            </text>
          </g>
        </g>
        <g
           id="g13828"
           style="">
          <g
             transform="matrix(6,0,0,6,770.02497,909.29999)"
             id="g13830"
             style="">
            <text
               id="text13834"
               style="font-variant:normal;font-weight:normal;font-size:10.66699982px;font-family:Helvetica;-inkscape-font-specification:Helvetica;writing-mode:lr-tb;fill:#262626;fill-opacity:1;fill-rule:nonzero;stroke:none"
               transform="translate(-3.5,10)">
              <tspan
                 id="tspan13832"
                 y="0"
                 x="0"
                 style="">4</tspan>
            </text>
          </g>
        </g>
        <g
           id="g13836"
           style="">
          <g
             transform="matrix(6,0,0,6,1047.225,909.29999)"
             id="g13838"
             style="">
            <text
               id="text13842"
               style="font-variant:normal;font-weight:normal;font-size:10.66699982px;font-family:Helvetica;-inkscape-font-specification:Helvetica;writing-mode:lr-tb;fill:#262626;fill-opacity:1;fill-rule:nonzero;stroke:none"
               transform="translate(-3.5,10)">
              <tspan
                 id="tspan13840"
                 y="0"
                 x="0"
                 style="">6</tspan>
            </text>
          </g>
        </g>
        <g
           id="g13844"
           style="">
          <g
             transform="matrix(6,0,0,6,1324.425,909.29999)"
             id="g13846"
             style="">
            <text
               id="text13850"
               style="font-variant:normal;font-weight:normal;font-size:10.66699982px;font-family:Helvetica;-inkscape-font-specification:Helvetica;writing-mode:lr-tb;fill:#262626;fill-opacity:1;fill-rule:nonzero;stroke:none"
               transform="translate(-3.5,10)">
              <tspan
                 id="tspan13848"
                 y="0"
                 x="0"
                 style="">8</tspan>
            </text>
          </g>
        </g>
        <g
           id="g13852"
           style="">
          <g
             transform="matrix(6,0,0,6,1601.625,909.29999)"
             id="g13854"
             style="">
            <text
               id="text13858"
               style="font-variant:normal;font-weight:normal;font-size:10.66699982px;font-family:Helvetica;-inkscape-font-specification:Helvetica;writing-mode:lr-tb;fill:#262626;fill-opacity:1;fill-rule:nonzero;stroke:none"
               transform="translate(-7,10)">
              <tspan
                 id="tspan13856"
                 sodipodi:role="line"
                 y="0"
                 x="0 5.9308519">10</tspan>
            </text>
          </g>
        </g>
        <g
           id="g13860"
           style="">
          <g
             transform="matrix(6,0,0,6,908.62564,987.29999)"
             id="g13862"
             style="">
            <text
               id="text13866"
               style="font-variant:normal;font-weight:normal;font-size:10.66699982px;font-family:Helvetica;-inkscape-font-specification:Helvetica;writing-mode:lr-tb;fill:#262626;fill-opacity:1;fill-rule:nonzero;stroke:none"
               transform="translate(-18.5,10)">
              <tspan
                 id="tspan13864"
                 sodipodi:role="line"
                 y="0"
                 x="0 2.965426 5.3334999 14.219111 20.149963 23.115389 26.080814">time, s</tspan>
            </text>
          </g>
        </g>
        <g
           transform="matrix(6,0,0,6,-18.374998,-57.5)"
           id="g13868"
           style="">
          <path
             inkscape:connector-curvature="0"
             id="path13870"
             style="fill:none;stroke:#262626;stroke-width:0.66666698;stroke-linecap:square;stroke-linejoin:round;stroke-miterlimit:10;stroke-dasharray:none;stroke-opacity:1"
             d="M 39,159 V 105" />
        </g>
        <g
           transform="matrix(6,0,0,6,-18.374998,-57.5)"
           id="g13872"
           style="">
          <path
             inkscape:connector-curvature="0"
             id="path13874"
             style="fill:none;stroke:#262626;stroke-width:0.66666698;stroke-linecap:square;stroke-linejoin:round;stroke-miterlimit:10;stroke-dasharray:none;stroke-opacity:1"
             d="m 39,148.2 h 2.310001" />
        </g>
        <g
           transform="matrix(6,0,0,6,-18.374998,-57.5)"
           id="g13876"
           style="">
          <path
             inkscape:connector-curvature="0"
             id="path13878"
             style="fill:none;stroke:#262626;stroke-width:0.66666698;stroke-linecap:square;stroke-linejoin:round;stroke-miterlimit:10;stroke-dasharray:none;stroke-opacity:1"
             d="m 39,126.6 h 2.310001" />
        </g>
        <g
           transform="matrix(6,0,0,6,-18.374998,-57.5)"
           id="g13880"
           style="">
          <path
             inkscape:connector-curvature="0"
             id="path13882"
             style="fill:none;stroke:#262626;stroke-width:0.66666698;stroke-linecap:square;stroke-linejoin:round;stroke-miterlimit:10;stroke-dasharray:none;stroke-opacity:1"
             d="m 39,105 h 2.310001" />
        </g>
        <g
           id="g13884"
           style="">
          <g
             transform="matrix(6,0,0,6,202.82499,831.69998)"
             id="g13886"
             style="">
            <text
               id="text13890"
               style="font-variant:normal;font-weight:normal;font-size:10.66699982px;font-family:Helvetica;-inkscape-font-specification:Helvetica;writing-mode:lr-tb;fill:#262626;fill-opacity:1;fill-rule:nonzero;stroke:none"
               transform="translate(-7,3.5)">
              <tspan
                 id="tspan13888"
                 y="0"
                 x="0"
                 style="">0</tspan>
            </text>
          </g>
        </g>
        <g
           id="g13892"
           style="">
          <g
             transform="matrix(6,0,0,6,202.82499,702.09999)"
             id="g13894"
             style="">
            <text
               id="text13898"
               style="font-variant:normal;font-weight:normal;font-size:10.66699982px;font-family:Helvetica;-inkscape-font-specification:Helvetica;writing-mode:lr-tb;fill:#262626;fill-opacity:1;fill-rule:nonzero;stroke:none"
               transform="translate(-14,3.5)">
              <tspan
                 id="tspan13896"
                 sodipodi:role="line"
                 y="0"
                 x="0 5.9308519">20</tspan>
            </text>
          </g>
        </g>
        <g
           id="g13900"
           style="">
          <g
             transform="matrix(6,0,0,6,202.82499,572.5)"
             id="g13902"
             style="">
            <text
               id="text13906"
               style="font-variant:normal;font-weight:normal;font-size:10.66699982px;font-family:Helvetica;-inkscape-font-specification:Helvetica;writing-mode:lr-tb;fill:#262626;fill-opacity:1;fill-rule:nonzero;stroke:none"
               transform="translate(-14,3.5)">
              <tspan
                 id="tspan13904"
                 sodipodi:role="line"
                 y="0"
                 x="0 5.9308519">40</tspan>
            </text>
          </g>
        </g>
        <g
           id="g13908"
           style="">
          <g
             transform="matrix(-2.6e-7,-6,6,-2.6e-7,65.625002,872.5)"
             id="g13910"
             style="">
            <text
               id="text13914"
               style="font-variant:normal;font-weight:normal;font-size:10.66699982px;font-family:Helvetica;-inkscape-font-specification:Helvetica;writing-mode:lr-tb;fill:#262626;fill-opacity:1;fill-rule:nonzero;stroke:none">
              <tspan
                 id="tspan13912"
                 y="0"
                 x="0"
                 style="">a</tspan>
            </text>
          </g>
        </g>
        <g
           id="g13916"
           style="">
          <g
             transform="matrix(-2.6e-7,-6,6,-2.6e-7,95.625002,830.5)"
             id="g13918"
             style="">
            <text
               id="text13922"
               style="font-variant:normal;font-weight:normal;font-size:8.53299999px;font-family:Helvetica;-inkscape-font-specification:Helvetica;writing-mode:lr-tb;fill:#262626;fill-opacity:1;fill-rule:nonzero;stroke:none">
              <tspan
                 id="tspan13920"
                 y="0"
                 x="0"
                 style="">Y</tspan>
            </text>
          </g>
        </g>
        <g
           id="g13924"
           style="">
          <g
             transform="matrix(-2.6e-7,-6,6,-2.6e-7,65.625002,794.5)"
             id="g13926"
             style="">
            <text
               id="text13930"
               style="font-variant:normal;font-weight:normal;font-size:10.66699982px;font-family:Helvetica;-inkscape-font-specification:Helvetica;writing-mode:lr-tb;fill:#262626;fill-opacity:1;fill-rule:nonzero;stroke:none">
              <tspan
                 id="tspan13928"
                 sodipodi:role="line"
                 y="0"
                 x="0 2.965426 5.9308519 14.816463 17.781889">, m/s</tspan>
            </text>
          </g>
        </g>
        <g
           id="g13932"
           style="">
          <g
             transform="matrix(-2.6e-7,-6,6,-2.6e-7,35.625002,632.5)"
             id="g13934"
             style="">
            <text
               id="text13938"
               style="font-variant:normal;font-weight:normal;font-size:8.53299999px;font-family:Helvetica;-inkscape-font-specification:Helvetica;writing-mode:lr-tb;fill:#262626;fill-opacity:1;fill-rule:nonzero;stroke:none">
              <tspan
                 id="tspan13936"
                 y="0"
                 x="0"
                 style="">2</tspan>
            </text>
          </g>
        </g>
        <g
           transform="matrix(6,0,0,6,-18.374998,-57.5)"
           id="g13940"
           style="">
          <path
             inkscape:connector-curvature="0"
             id="path13942"
             style="fill:none;stroke:#0000ff;stroke-width:0.66666698;stroke-linecap:butt;stroke-linejoin:round;stroke-miterlimit:10;stroke-dasharray:none;stroke-opacity:1"
             d="m 39.230999,128.84383 0.231003,3.14355 0.230999,0.98889 0.230999,-0.28128 0.230999,-0.7852 0.231003,-0.085 0.230999,1.05986 0.230999,2.42173 0.230999,3.17071 0.231002,3.20079 0.230999,2.92046 0.230999,2.51257 0.230999,2.25456 0.231003,2.27283 0.230999,1.74663 0.230999,0.28048 0.230999,-1.17465 0.231003,-1.83844 0.230999,-1.52304 0.230999,-0.87201 0.231003,-1.19534 0.230999,-1.35944 0.230999,-1.41504 0.230999,-1.55197 0.231003,-1.14506 0.230999,0.21484 0.230999,0.80898 0.230998,-0.58152 0.231003,-2.14753 0.230999,-2.96071 0.230999,-4.37334 0.230999,-11.38323 0.231003,-13.17738 0.230999,-2.18052 0.230999,9.11412 0.231003,8.86952 0.230999,4.80562 0.230999,2.75329 0.230999,1.045 0.231003,-0.71019 0.230999,-0.59331 0.230999,0.40546 0.230999,1.50073 0.231002,2.29239 0.230999,2.51743 0.230999,2.32472 0.230999,2.3535 0.231003,2.19702 0.230999,1.43961 0.230999,1.23964 0.230999,1.41633 0.231003,1.27925 0.230999,1.06763 0.230999,0.43956 0.231003,0.29407 0.230999,-0.0585 0.230999,-0.84599 0.230999,-1.71088 0.230999,-2.78692 0.231003,-3.291 0.230999,-3.14258 0.230999,-2.06493 0.231002,-0.19594 0.230999,1.06537 0.230999,-0.42502 0.231003,-2.72307 0.230999,-4.07716 0.230999,-3.78794 0.230999,-4.88047 0.230999,-6.11478 0.231003,1.41925 0.230999,5.68313 0.230999,4.4595 0.231003,2.37953 0.230999,1.49507 0.230999,1.01492 0.230999,0.11948 0.230999,-1.09917 0.231003,-1.40048 0.230999,0.0246 0.230999,2.44743 0.231002,3.41838 0.230999,3.44991 0.230999,3.24038 0.231003,2.93372 0.230999,2.72452 0.230999,2.50627 0.230999,1.68858 0.230999,0.71973 0.231003,-0.48903 0.230999,-1.04404 0.230999,-1.41729 0.231003,-1.89583 0.230999,-2.34671 0.230999,-2.19751 0.230999,-2.01416 0.231002,-1.63265 0.230999,-0.82643 0.230999,-0.43939 0.230999,-2.6445 0.231003,-5.40959 0.230999,-7.28474 0.230999,-7.7846 0.230999,-2.20704 0.230999,3.85876 0.231003,3.39607 0.231003,3.30004 0.230999,2.84674 0.230999,2.69026 0.231003,2.17404 0.230995,0.8038 0.231003,-0.13742 0.230995,0.12885 0.231003,0.68545 0.231002,1.45693 0.230996,1.61696 0.231002,1.67192 0.230996,1.69537 0.231002,1.88435 0.231003,2.02694 0.231003,2.05863 0.230995,2.08304 0.231003,2.21027 0.230995,1.62311 0.231003,0.86909 0.231003,-0.10831 0.230995,-0.75691 0.231003,-1.96179 0.230995,-2.9523 0.231003,-3.27499 0.231003,-3.02489 0.231002,-2.64433 0.230996,-0.96418 0.231002,2.14092 0.230996,2.72081 0.231002,-0.46738 0.231003,-3.75189 0.230995,-5.9704 0.231003,-6.84324 0.230995,-5.93063 0.231003,-3.10249 0.231003,1.31417 0.230995,4.43492 0.231003,3.95446 0.231003,2.34444 0.230995,1.66822 0.231003,1.36007 0.231003,0.88608 0.230995,0.49081 0.231003,0.34482 0.230995,1.00411 0.231003,2.15982 0.231002,2.52357 0.230995,2.67716 0.231003,2.57238 0.230995,2.27834 0.231003,1.94676 0.231003,1.5683 0.231003,1.33405 0.230995,0.34532 0.231003,-0.0781 0.230995,-0.34724 0.231003,-1.22493 0.231003,-1.64397 0.230995,-1.35878 0.231003,-1.07263 0.230995,-1.40292 0.231003,-1.56038 0.231002,-0.86524 0.231003,0.68514 0.230995,-0.41612 0.231003,-3.93506 0.230995,-5.42334 0.231003,-5.03388 0.231003,-8.64514 0.230995,-8.65079 0.231003,-1.56054 0.230995,7.82033 0.231003,9.51714 0.231003,5.46731 0.230995,2.17373 0.231003,1.11354 0.231003,0.55904 0.230995,-0.47578 0.231003,-0.66913 0.231002,-0.16133 0.230996,0.47657 0.231002,1.17434 0.230996,1.87562 0.231002,2.40636 0.231003,2.73535 0.230995,2.6542 0.231003,2.68152 0.231003,2.41283 0.230995,1.48019 0.231003,0.20984 0.231003,-0.95575 0.230995,-1.22848 0.231003,-1.03934 0.230995,-1.34036 0.231003,-2.17485 0.231003,-2.94617 0.230995,-2.58711 0.231003,-1.90068 0.230995,-0.85973 0.231003,1.28426 0.231002,2.7706 0.230996,0.64569 0.231002,-1.6603 0.230996,-3.07839 0.231002,-4.1698 0.231003,-6.05932 0.231003,-7.61615 0.231003,-8.05911 0.230995,0.42761 0.231003,7.62794 0.230995,7.12243 0.231003,3.89868 0.231003,2.25682 0.230995,1.16416 0.231002,0.58845 0.230996,-0.57342 0.231002,-1.14862 0.231003,0.0721 0.230995,2.18828 0.231003,3.35874 0.230995,2.93548 0.231003,2.44484 0.231003,1.99025 0.230995,1.7964 0.231003,1.69442 0.230995,1.86364 0.231003,1.08461 0.231003,0.003 0.230995,-0.46883 0.231003,-0.89286 0.230995,-1.82535 0.23101,-2.11925 0.230996,-2.63367 0.231002,-2.7444 0.231003,-1.71412 0.230995,-0.65619 0.231003,0.39673 0.230995,0.74461 0.231003,-1.61017 0.231003,-3.08163 0.230995,-2.81182 0.231003,-4.84442 0.230995,-7.59626 0.231003,-9.12415 0.231003,-1.18839 0.230995,7.81807 0.231003,6.95591 0.230995,5.98495 0.231003,5.36174 0.231003,2.66051 0.230995,-0.0993 0.231003,-1.57268 0.230995,-1.29152 0.231003,-0.1109 0.231002,1.07474 0.230996,1.53175 0.23101,1.65755 0.230995,1.9322 0.230999,2.20527 0.231,1.9524 0.231,2.1419 0.231,2.11375 0.231,1.81128 0.231,0.78277 0.231,-0.20564 0.231,-1.34424 0.231,-2.83784 0.231,-3.47803 0.231,-3.23717 0.231,-2.084 0.231,-1.16641 0.231,0.52477 0.231,2.289 0.231,0.80621 0.231,-1.95338 0.231,-3.61562 0.231,-5.60617 0.231,-6.91209 0.231,-7.95969 0.23099,-2.9995 0.23101,4.18013 0.231,6.03815 0.231,3.33286 0.23101,1.69052 0.23099,1.44543 0.231,1.45288 0.231,0.91162 0.231,0.894 0.231,1.44737 0.231,1.64331 0.231,1.60112 0.231,1.92785 0.231,2.33281 0.231,2.57029 0.231,2.26233 0.231,1.75858 0.231,1.74597 0.231,1.51091 0.231,0.60155 0.231,-0.51781 0.231,-0.7199 0.231,-0.98501 0.231,-1.80029 0.231,-2.02646 0.231,-1.86382 0.231,-1.95402 0.231,-0.95641 0.231,0.3492 0.231,-0.0359 0.231,-3.21275 0.23101,-4.96663 0.23099,-5.12427 0.231,-6.94798 0.231,-6.19254 0.231,-1.0395 0.231,3.76451 0.231,4.50411 0.231,1.99849 0.231,1.37366 0.231,2.332 0.231,2.13575 0.231,1.65576 0.231,1.84021 0.231,2.04957 0.231,1.98006 0.231,1.88614 0.231,1.80545 0.231,1.43671 0.23099,0.7068 0.23101,0.38573 0.231,0.8733 0.231,1.27295 0.23101,1.43218 0.23099,1.09932 0.231,0.55821 0.231,-0.35629 0.231,-0.38364 0.231,-0.0802 0.231,-0.46348 0.231,-1.55715 0.231,-1.98652 0.231,-1.93399 0.231,-1.65883 0.231,-1.07863 0.231,0.95834 0.231,2.29564 0.231,-0.17848 0.231,-4.18613 0.231,-2.71368 0.231,-3.33771 0.231,-6.62823 0.231,-10.28909 0.231,-9.21419 0.231,5.67344 0.231,8.15706 0.23099,5.53053 0.23101,3.47997 0.231,2.21608 0.231,1.11824 0.23101,0.2863 0.23099,-0.1109 0.231,0.23489 0.231,1.25905 0.231,2.31728 0.231,2.59971 0.231,2.64225 0.231,2.34735 0.231,2.27009 0.231,2.18392 0.231,1.88725 0.231,1.15202 0.231,0.23038 0.231,-0.24913 0.231,-0.64859 0.231,-1.16415 0.231,-2.15934 0.231,-2.61378 0.23099,-2.05006 0.23101,-2.1671 0.231,-1.9403 0.231,-0.46591 0.23101,0.56179 0.231,-0.32898 0.23099,-2.81475 0.231,-2.84349 0.231,-2.30566 0.231,-5.49414 0.23101,-8.21559 0.23099,-3.78633 0.231,2.82685 0.231,6.44812 0.231,4.47357 0.23101,2.77916 0.23098,1.8635 0.23102,1.06682 0.23099,0.84421 0.231,1.15702 0.23101,1.46517 0.231,1.60499 0.23099,1.4532 0.231,1.72559 0.231,1.82326 0.231,2.06314 0.23099,2.30243 0.23102,2.26069 0.23099,2.22062 0.231,1.28135 0.231,-0.35064 0.23101,-1.12712 0.23098,-1.31644 0.23101,-1.3992 0.231,-2.16774 0.231,-2.81813 0.23099,-3.17589 0.23102,-2.53601 0.23098,-1.01656 0.23101,1.79254 0.231,2.19846 0.231,-1.62228 0.23101,-3.79119 0.23098,-5.5504 0.23102,-7.14959 0.23099,-9.63095 0.231,-4.43962 0.231,7.85089 0.23101,8.48686 0.23098,4.49215 0.23101,1.84847 0.231,0.80977 0.231,-0.11188 0.23099,-1.64008 0.23102,-2.88552 0.23099,-2.45439 0.231,0.84986 0.231,4.37947 0.231,5.01806 0.23099,4.26631 0.23101,3.77646 0.231,3.68481 0.231,3.28275 0.23099,2.24534 0.23102,1.2356 0.23098,0.39509 0.23101,-0.48481 0.231,-1.10077 0.231,-1.34748 0.23101,-1.58673 0.23098,-2.04779 0.23102,-2.89605 0.23099,-2.75847 0.231,-2.11084 0.231,-1.56604 0.23101,-0.44506 0.23098,-0.0438 0.23101,-0.78312 0.231,-1.79446 0.231,-2.76009 0.23099,-4.4936 0.23102,-9.95122 0.23099,-8.02644 0.231,1.13989 0.231,7.5712 0.231,7.17577 0.23099,5.57061 0.231,3.95786 0.23101,1.97375 0.231,0.60268 0.23099,-0.1054 0.23102,-0.67334 0.231,-0.1788 0.23099,0.52315 0.231,1.02931 0.231,1.81209 0.231,2.58356 0.23099,3.02214 0.23102,2.72032 0.23099,2.00156 0.231,1.08331 0.231,-0.19934 0.23101,-1.3515 0.23098,-2.03164 0.23101,-2.106 0.231,-2.39213 0.231,-1.73725 0.23099,-0.90256 0.23102,-0.45524 0.23099,-0.14356 0.231,0.54529 0.231,0.87331 0.231,-0.69241 0.23099,-3.85148 0.231,-4.37931 0.23101,-5.28205 0.231,-7.25046 0.231,-9.33931 0.23101,-5.39747 0.231,7.15993 0.23099,10.77295 0.231,4.84199 0.231,1.97667 0.231,1.00749 0.23099,0.39122 0.23102,-0.10119 0.23099,0.5343 0.231,1.03966 0.231,2.50141 0.23101,3.70324 0.23098,3.88414 0.23101,3.41369 0.231,2.67569 0.231,2.00496 0.23099,1.02042 0.23102,0.006 0.23099,-0.89191 0.231,-0.56 0.231,0.11591 0.231,-0.36002 0.23099,-1.41795 0.231,-2.45422 0.23102,-2.79258 0.23099,-2.44243 0.231,-2.37838 0.23101,-0.8586 0.231,0.53429 0.23099,1.70572 0.231,0.44021 0.231,-3.16101 0.231,-4.51559 0.23099,-5.8254 0.23102,-11.45 0.23099,-10.3308 0.231,1.3355 0.231,10.04143 0.23101,8.25164 0.23098,5.44452 0.23101,3.6426 0.231,1.09172 0.231,-1.06585 0.23099,-1.20601 0.23102,-0.57213 0.23098,0.41144 0.23101,1.33049 0.231,1.87886 0.231,2.2801 0.23101,2.60958 0.23098,2.63705 0.23102,2.4822 0.23099,2.50627 0.231,1.77247 0.231,0.64925 0.23101,-0.17088 0.23098,-0.86586 0.23101,-1.58384 0.231,-1.59965 0.231,-1.83974 0.23099,-2.13089 0.23102,-2.44694 0.23099,-2.28868 0.231,-1.73853 0.231,-0.29181 0.231,1.35701 0.23099,1.6577 0.23101,-0.2496 0.231,-1.57784 0.231,-2.85693 0.23099,-4.90067 0.23102,-6.67688 0.23098,-6.85827 0.23101,-2.55461 0.231,3.99811 0.231,5.49576 0.23101,3.43859 0.23098,2.30501 0.23102,1.72447 0.23099,1.6176 0.231,1.22461 0.231,1.23753 0.23101,1.82859 0.23098,2.43238 0.23101,2.97753 0.231,3.09877 0.231,3.02247 0.23099,2.7887 0.23102,2.24551 0.23099,0.9079 0.231,-0.85536 0.231,-1.5025 0.231,-1.90747 0.23099,-2.66407 0.231,-2.41752 0.23101,-0.84889 0.231,-0.40723 0.23099,-0.42259 0.23102,-0.87654 0.231,-0.61141 0.23099,-0.68579 0.231,-1.09898 0.231,-2.29999 0.231,-3.70033 0.23099,-2.91431 0.23102,-2.93193 0.23099,-7.23139 0.231,-8.14382 0.231,-3.54335 0.23101,4.04241 0.23098,5.6668 0.23101,4.26582 0.231,3.63453 0.231,3.80718 0.23099,2.5918 0.23102,1.13213 0.23099,1.37495 0.231,1.97263 0.231,1.8761 0.231,1.42895 0.23099,0.94913 0.231,1.00102 0.23101,0.89868 0.231,0.7448 0.231,1.0049 0.23101,1.40631 0.231,1.21426 0.23099,0.68788 0.231,0.42243 0.231,-0.32866 0.231,-0.6845 0.23099,-1.23462 0.23102,-1.50848 0.23099,-1.30141 0.231,-0.69902 0.231,-0.61595 0.23101,-0.24379 0.23098,0.48952 0.23101,0.73056 0.231,0.29634 0.231,-1.8981 0.23099,-2.97316 0.23102,-5.21593 0.23099,-8.31711 0.231,-12.00547 0.17978,-9.41483" />
        </g>
        <g
           transform="matrix(6,0,0,6,-18.374998,-57.5)"
           id="g13944"
           style="">
          <path
             inkscape:connector-curvature="0"
             id="path13946"
             style="fill:none;stroke:#0000ff;stroke-width:0.66666698;stroke-linecap:butt;stroke-linejoin:round;stroke-miterlimit:10;stroke-dasharray:none;stroke-opacity:1"
             d="m 188.55119,104.99356 0.13681,3.89529 0.23099,12.87879 0.231,6.26463 0.23102,2.53733 0.23099,1.18321 0.231,1.10449 0.23101,1.26146 0.231,0.69095 0.23099,0.50133 0.231,1.21926 0.231,2.36918 0.231,2.69818 0.23099,2.18245 0.23102,1.67031 0.23099,1.46936 0.231,1.4928 0.231,1.26163 0.23101,1.12405 0.23098,0.82335 0.23101,0.35065 0.231,0.0755 0.231,-0.797 0.23099,-1.76133 0.23102,-2.46764 0.23098,-2.99741 0.23101,-2.89685 0.231,-1.82988 0.231,-0.0485 0.23101,1.16495 0.23098,0.53898 0.23102,-1.59254 0.23099,-3.22682 0.231,-7.84505 0.231,-10.06148 0.23101,-6.72618 0.23098,1.42232 0.23101,4.88079 0.231,3.58118 0.231,4.27714 0.23099,3.7666 0.23102,2.13284 0.23099,1.621 0.231,1.94707 0.231,2.30598 0.23101,2.40653 0.23098,2.08708 0.23101,1.26906 0.231,0.20434 0.231,-0.29617 0.23099,0.0962 0.23102,0.88883 0.23098,1.56006 0.23101,1.76213 0.231,1.63588 0.231,1.39128 0.23101,0.74559 0.23098,0.31007 0.23102,-0.5115 0.23099,-1.64397 0.231,-2.35446 0.231,-2.14965 0.23101,-1.93075 0.23098,-1.81209 0.23101,-0.89061 0.231,0.14728 0.231,0.16247 0.23099,-0.76127 0.23102,-2.57999 0.23099,-2.81247 0.231,-2.98205 0.231,-5.47588 0.231,-7.19388 0.23099,-4.66303 0.231,1.88889 0.23101,5.04116 0.231,3.3107 0.23099,2.13704 0.23102,2.07884 0.231,2.18261 0.23099,1.78414 0.231,1.906 0.231,2.40508 0.231,2.56172 0.23099,2.46344 0.23102,2.3362 0.23099,1.91345 0.231,1.72028 0.231,1.24932 0.23101,0.81511 0.23098,0.58248 0.23101,0.27386 0.231,0.24201 0.231,-0.0658 0.23099,-0.45782 0.23102,-0.96773 0.23099,-1.49765 0.231,-2.0174 0.231,-1.69084 0.231,-1.16092 0.23099,-1.33728 0.231,-1.1795 0.23101,-1.15476 0.231,-2.55655 0.231,-3.56517 0.23101,-3.85084 0.231,-5.18569 0.23099,-6.619 0.231,-2.71676 0.231,3.39252 0.231,5.06783 0.23099,4.29154 0.23102,3.45716 0.23099,2.95879 0.231,1.33792 0.231,0.23506 0.23101,-0.0331 0.23098,0.14809 0.23101,0.60252 0.231,0.89368 0.231,1.19388 0.23099,1.16705 0.23102,1.12276 0.23099,1.34617 0.231,1.64493 0.231,2.04489 0.231,2.21706 0.23099,2.14932 0.231,1.88289 0.23102,1.02058 0.23099,-0.16488 0.231,-1.95243 0.23101,-2.81828 0.231,-2.57417 0.23099,-2.15094 0.231,-1.47194 0.231,-0.85715 0.231,0.44216 0.23099,1.21829 0.23102,-0.47998 0.23099,-2.28641 0.231,-3.29503 0.231,-4.49652 0.23101,-7.87868 0.23098,-9.0126 0.23101,-2.75314 0.231,5.181 0.231,5.63415 0.23099,3.08018 0.23102,1.21329 0.23098,1.06455 0.23101,1.25241 0.231,1.1179 0.231,1.04015 0.23101,1.51076 0.231,2.18666 0.23099,2.64094 0.231,2.75814 0.231,2.74247 0.231,2.21302 0.23099,1.74208 0.231,1.0838 0.23101,1.1006 0.23102,1.10319 0.23097,0.76015 0.231,0.2134 0.23102,-0.29261 0.231,-1.44043 0.23097,-2.28625 0.23102,-2.43465 0.231,-2.08627 0.23101,-1.25371 0.23099,-0.0702 0.231,0.84551 0.231,-0.10477 0.231,-2.42802 0.23099,-3.61982 0.231,-4.78524 0.23101,-12.7763 0.231,-12.11946 0.23102,-0.5393 0.23097,9.09941 0.231,8.1312 0.23102,5.22369 0.231,2.7921 0.23098,1.38674 0.23101,1.53048 0.23101,1.72123 0.231,2.00399 0.23099,1.95305 0.231,1.80563 0.231,1.18709 0.23101,0.35518 0.23098,0.22972 0.23101,0.7131 0.231,1.15299 0.231,1.55165 0.23099,1.82647 0.231,1.62586 0.231,0.27919 0.23102,-0.59169 0.23098,-1.15073 0.231,-1.96647 0.23102,-2.31212 0.231,-2.30921 0.231,-2.17178 0.23099,-1.61051 0.231,-0.4069 0.231,-0.35614 0.23101,-1.66336 0.23099,-2.63642 0.231,-2.70964 0.231,-1.60888 0.231,-3.02295 0.23099,-5.57546 0.231,-4.31982 0.23101,1.00732 0.23101,4.23236 0.23098,3.51296 0.231,2.39699 0.23102,2.4678 0.231,2.42511 0.23097,2.23985 0.23102,1.71656 0.231,1.62068 0.23101,1.92929 0.23098,2.11488 0.23101,2.03778 0.231,1.91765 0.231,1.71994 0.23101,0.96788 0.23098,0.19481 0.23101,-0.21501 0.231,0.15503 0.23102,0.77583 0.23097,0.86345 0.231,0.41208 0.23102,-0.69548 0.231,-2.18198 0.23098,-2.53634 0.23101,-2.25035 0.23101,-2.06543 0.231,-1.37543 0.23099,-0.16571 0.231,0.26092 0.231,-1.35167 0.231,-3.35582 0.23099,-4.007 0.23101,-5.05862 0.231,-7.85896 0.231,-8.32165 0.23099,-1.56781 0.231,7.37559 0.231,6.60882 0.23102,5.51677 0.231,5.52244 0.23098,4.45028 0.23102,1.03288 0.231,-1.22963 0.231,-0.74559 0.23099,-0.0731 0.231,0.29454 0.231,0.42097 0.23101,0.62047 0.23098,1.2406 0.23101,1.87078 0.231,2.24698 0.231,2.21252 0.23099,2.44273 0.231,2.37841 0.23101,1.44011 0.23101,0.008 0.23098,-1.05388 0.231,-1.61615 0.23102,-1.61923 0.231,-1.57784 0.23097,-1.29445 0.23102,-0.79442 0.231,-0.45944 0.23101,0.0656 0.231,-0.0579 0.23099,-0.16426 0.231,-0.40706 0.231,-3.56955 0.231,-6.9108 0.23099,-7.37623 0.231,-8.71498 0.23101,-8.65548 0.23102,1.73126 0.23097,9.80345 0.231,6.8012 0.23102,3.15616 0.231,0.83952 0.23097,0.66089 0.23102,0.66766 0.23099,-0.52217 0.23102,-0.5469 0.23099,0.55676 0.23098,2.01239 0.23102,2.77077 0.23102,3.1665 0.23096,3.21872 0.23101,3.30765 0.23102,2.73358 0.23099,1.63699 0.23102,1.08123 0.23099,0.54254 0.23098,-0.0197 0.23102,-0.16506 0.23099,-0.37635 0.23099,-1.20165 0.23101,-2.15449 0.23099,-2.51258 0.23102,-2.1199 0.23099,-2.07414 0.23098,-1.67614 0.23102,-0.58651 0.23102,0.69482 0.23096,-1.04709 0.23102,-3.05771 0.23101,-2.41865 0.23099,-4.81339 0.23099,-10.72735 0.23102,-12.45362 0.23098,6.04106 0.23102,9.57195 0.23099,8.39844 0.23099,4.71767 0.23102,3.63436 0.23098,2.56238 0.23102,1.26728 0.23099,-0.24669 0.23099,-0.88237 0.23101,-1.22638 0.23102,-0.43973 0.23096,0.7886 0.23102,2.28431 0.23102,2.96507 0.23098,2.78499 0.23099,2.07333 0.23102,1.60031 0.23099,0.87525 0.23101,0.14793 0.23099,-1.25694 0.23099,-1.79689 0.23102,-1.75034 0.23099,-2.24422 0.23098,-2.25132 0.23102,-1.73595 0.23099,-0.49113 0.23102,0.26464 0.23098,0.99115 0.23099,1.11533 L 270,140.6377" />
        </g>
      </g>
    </g>
    <text
       xml:space="preserve"
       style="font-style:normal;font-variant:normal;font-weight:bold;font-stretch:normal;font-size:4.23333359px;line-height:1.25;font-family:Arial;-inkscape-font-specification:'Arial Bold';font-variant-ligatures:normal;font-variant-caps:normal;font-variant-numeric:normal;text-align:start;letter-spacing:0px;word-spacing:0px;writing-mode:lr-tb;text-anchor:start;fill:#000000;fill-opacity:1;stroke:none;stroke-width:0.26458335"
       x="10.714074"
       y="253.21204"
       id="text14156"><tspan
         sodipodi:role="line"
         id="tspan14154"
         x="10.714074"
         y="253.21204"
         style="stroke-width:0.26458335">A</tspan></text>
    <text
       xml:space="preserve"
       style="font-style:normal;font-variant:normal;font-weight:bold;font-stretch:normal;font-size:4.23333359px;line-height:1.25;font-family:Arial;-inkscape-font-specification:'Arial Bold';font-variant-ligatures:normal;font-variant-caps:normal;font-variant-numeric:normal;text-align:start;letter-spacing:0px;word-spacing:0px;writing-mode:lr-tb;text-anchor:start;fill:#000000;fill-opacity:1;stroke:none;stroke-width:0.26458335"
       x="13.036843"
       y="276.73761"
       id="text14156-5"><tspan
         sodipodi:role="line"
         id="tspan14154-8"
         x="13.036843"
         y="276.73761"
         style="stroke-width:0.26458335">B</tspan></text>
  </g>
</svg>
